<?xml version="1.0" encoding="UTF-8" standalone="no"?>
<!DOCTYPE svg PUBLIC "-//W3C//DTD SVG 1.1//EN"
 "http://www.w3.org/Graphics/SVG/1.1/DTD/svg11.dtd">
<!-- Generated by graphviz version 2.30.1 (20180420.1509)
 -->
<!-- Title: snakemake_dag Pages: 1 -->
<svg width="711pt" height="980pt"
 viewBox="0.00 0.00 711.00 980.00" xmlns="http://www.w3.org/2000/svg" xmlns:xlink="http://www.w3.org/1999/xlink">
<g id="graph0" class="graph" transform="scale(1 1) rotate(0) translate(4 976)">
<title>snakemake_dag</title>
<polygon fill="white" stroke="white" points="-4,5 -4,-976 708,-976 708,5 -4,5"/>
<!-- 0 -->
<g id="node1" class="node"><title>0</title>
<path fill="none" stroke="#68d856" stroke-width="2" stroke-dasharray="5,2" d="M323,-684C323,-684 191,-684 191,-684 185,-684 179,-678 179,-672 179,-672 179,-660 179,-660 179,-654 185,-648 191,-648 191,-648 323,-648 323,-648 329,-648 335,-654 335,-660 335,-660 335,-672 335,-672 335,-678 329,-684 323,-684"/>
<text text-anchor="middle" x="257" y="-663.5" font-family="sans" font-size="10.00">extract_low_coverage_positions</text>
</g>
<!-- 4 -->
<g id="node5" class="node"><title>4</title>
<path fill="none" stroke="#5673d8" stroke-width="2" stroke-dasharray="5,2" d="M285,-612C285,-612 229,-612 229,-612 223,-612 217,-606 217,-600 217,-600 217,-588 217,-588 217,-582 223,-576 229,-576 229,-576 285,-576 285,-576 291,-576 297,-582 297,-588 297,-588 297,-600 297,-600 297,-606 291,-612 285,-612"/>
<text text-anchor="middle" x="257" y="-591.5" font-family="sans" font-size="10.00">filter_coverage</text>
</g>
<!-- 0&#45;&gt;4 -->
<g id="edge7" class="edge"><title>0&#45;&gt;4</title>
<path fill="none" stroke="grey" stroke-width="2" d="M257,-647.697C257,-639.983 257,-630.712 257,-622.112"/>
<polygon fill="grey" stroke="grey" points="260.5,-622.104 257,-612.104 253.5,-622.104 260.5,-622.104"/>
</g>
<!-- 1 -->
<g id="node2" class="node"><title>1</title>
<path fill="none" stroke="#d89556" stroke-width="2" d="M323.25,-108C323.25,-108 242.75,-108 242.75,-108 236.75,-108 230.75,-102 230.75,-96 230.75,-96 230.75,-84 230.75,-84 230.75,-78 236.75,-72 242.75,-72 242.75,-72 323.25,-72 323.25,-72 329.25,-72 335.25,-78 335.25,-84 335.25,-84 335.25,-96 335.25,-96 335.25,-102 329.25,-108 323.25,-108"/>
<text text-anchor="middle" x="283" y="-87.5" font-family="sans" font-size="10.00">generate_raxml_tree</text>
</g>
<!-- 14 -->
<g id="node15" class="node"><title>14</title>
<path fill="none" stroke="#d8b456" stroke-width="2" d="M257,-36C257,-36 227,-36 227,-36 221,-36 215,-30 215,-24 215,-24 215,-12 215,-12 215,-6 221,-0 227,-0 227,-0 257,-0 257,-0 263,-0 269,-6 269,-12 269,-12 269,-24 269,-24 269,-30 263,-36 257,-36"/>
<text text-anchor="middle" x="242" y="-15.5" font-family="sans" font-size="10.00">all</text>
</g>
<!-- 1&#45;&gt;14 -->
<g id="edge24" class="edge"><title>1&#45;&gt;14</title>
<path fill="none" stroke="grey" stroke-width="2" d="M272.865,-71.6966C268.148,-63.6436 262.438,-53.8945 257.218,-44.9824"/>
<polygon fill="grey" stroke="grey" points="260.092,-42.9643 252.018,-36.1043 254.052,-46.5021 260.092,-42.9643"/>
</g>
<!-- 2 -->
<g id="node3" class="node"><title>2</title>
<path fill="none" stroke="#5673d8" stroke-width="2" stroke-dasharray="5,2" d="M526,-612C526,-612 470,-612 470,-612 464,-612 458,-606 458,-600 458,-600 458,-588 458,-588 458,-582 464,-576 470,-576 470,-576 526,-576 526,-576 532,-576 538,-582 538,-588 538,-588 538,-600 538,-600 538,-606 532,-612 526,-612"/>
<text text-anchor="middle" x="498" y="-591.5" font-family="sans" font-size="10.00">filter_coverage</text>
</g>
<!-- 18 -->
<g id="node19" class="node"><title>18</title>
<path fill="none" stroke="#56d863" stroke-width="2" stroke-dasharray="5,2" d="M478.25,-540C478.25,-540 365.75,-540 365.75,-540 359.75,-540 353.75,-534 353.75,-528 353.75,-528 353.75,-516 353.75,-516 353.75,-510 359.75,-504 365.75,-504 365.75,-504 478.25,-504 478.25,-504 484.25,-504 490.25,-510 490.25,-516 490.25,-516 490.25,-528 490.25,-528 490.25,-534 484.25,-540 478.25,-540"/>
<text text-anchor="middle" x="422" y="-519.5" font-family="sans" font-size="10.00">create_all_position_bed_file</text>
</g>
<!-- 2&#45;&gt;18 -->
<g id="edge33" class="edge"><title>2&#45;&gt;18</title>
<path fill="none" stroke="grey" stroke-width="2" d="M479.213,-575.697C469.826,-567.05 458.316,-556.449 448.087,-547.027"/>
<polygon fill="grey" stroke="grey" points="450.297,-544.305 440.57,-540.104 445.555,-549.454 450.297,-544.305"/>
</g>
<!-- 22 -->
<g id="node23" class="node"><title>22</title>
<path fill="none" stroke="#56d0d8" stroke-width="2" stroke-dasharray="5,2" d="M527,-468C527,-468 415,-468 415,-468 409,-468 403,-462 403,-456 403,-456 403,-444 403,-444 403,-438 409,-432 415,-432 415,-432 527,-432 527,-432 533,-432 539,-438 539,-444 539,-444 539,-456 539,-456 539,-462 533,-468 527,-468"/>
<text text-anchor="middle" x="471" y="-447.5" font-family="sans" font-size="10.00">AF_by_position_calculation</text>
</g>
<!-- 2&#45;&gt;22 -->
<g id="edge40" class="edge"><title>2&#45;&gt;22</title>
<path fill="none" stroke="grey" stroke-width="2" d="M500.7,-575.976C502.998,-557.844 505.061,-528.447 499,-504 496.708,-494.753 492.474,-485.342 487.981,-477.067"/>
<polygon fill="grey" stroke="grey" points="490.929,-475.173 482.887,-468.275 484.872,-478.682 490.929,-475.173"/>
</g>
<!-- 3 -->
<g id="node4" class="node"><title>3</title>
<path fill="none" stroke="#d8d356" stroke-width="2" stroke-dasharray="5,2" d="M543.25,-756C543.25,-756 448.75,-756 448.75,-756 442.75,-756 436.75,-750 436.75,-744 436.75,-744 436.75,-732 436.75,-732 436.75,-726 442.75,-720 448.75,-720 448.75,-720 543.25,-720 543.25,-720 549.25,-720 555.25,-726 555.25,-732 555.25,-732 555.25,-744 555.25,-744 555.25,-750 549.25,-756 543.25,-756"/>
<text text-anchor="middle" x="496" y="-735.5" font-family="sans" font-size="10.00">create_all_position_bed</text>
</g>
<!-- 3&#45;&gt;0 -->
<g id="edge1" class="edge"><title>3&#45;&gt;0</title>
<path fill="none" stroke="grey" stroke-width="2" d="M437.84,-719.966C403.865,-710.015 360.815,-697.406 325.243,-686.987"/>
<polygon fill="grey" stroke="grey" points="326.002,-683.563 315.421,-684.111 324.034,-690.281 326.002,-683.563"/>
</g>
<!-- 13 -->
<g id="node14" class="node"><title>13</title>
<path fill="none" stroke="#68d856" stroke-width="2" stroke-dasharray="5,2" d="M625,-684C625,-684 493,-684 493,-684 487,-684 481,-678 481,-672 481,-672 481,-660 481,-660 481,-654 487,-648 493,-648 493,-648 625,-648 625,-648 631,-648 637,-654 637,-660 637,-660 637,-672 637,-672 637,-678 631,-684 625,-684"/>
<text text-anchor="middle" x="559" y="-663.5" font-family="sans" font-size="10.00">extract_low_coverage_positions</text>
</g>
<!-- 3&#45;&gt;13 -->
<g id="edge21" class="edge"><title>3&#45;&gt;13</title>
<path fill="none" stroke="grey" stroke-width="2" d="M511.573,-719.697C519.202,-711.22 528.523,-700.864 536.876,-691.583"/>
<polygon fill="grey" stroke="grey" points="539.518,-693.879 543.606,-684.104 534.315,-689.196 539.518,-693.879"/>
</g>
<!-- 15 -->
<g id="node16" class="node"><title>15</title>
<path fill="none" stroke="#56d0d8" stroke-width="2" stroke-dasharray="5,2" d="M285,-468C285,-468 173,-468 173,-468 167,-468 161,-462 161,-456 161,-456 161,-444 161,-444 161,-438 167,-432 173,-432 173,-432 285,-432 285,-432 291,-432 297,-438 297,-444 297,-444 297,-456 297,-456 297,-462 291,-468 285,-468"/>
<text text-anchor="middle" x="229" y="-447.5" font-family="sans" font-size="10.00">AF_by_position_calculation</text>
</g>
<!-- 4&#45;&gt;15 -->
<g id="edge27" class="edge"><title>4&#45;&gt;15</title>
<path fill="none" stroke="grey" stroke-width="2" d="M253.623,-575.871C248.829,-551.564 240.007,-506.819 234.327,-478.013"/>
<polygon fill="grey" stroke="grey" points="237.758,-477.323 232.389,-468.189 230.89,-478.677 237.758,-477.323"/>
</g>
<!-- 4&#45;&gt;18 -->
<g id="edge31" class="edge"><title>4&#45;&gt;18</title>
<path fill="none" stroke="grey" stroke-width="2" d="M297.364,-575.876C320.02,-566.264 348.473,-554.193 372.47,-544.013"/>
<polygon fill="grey" stroke="grey" points="373.929,-547.196 381.768,-540.068 371.195,-540.752 373.929,-547.196"/>
</g>
<!-- 5 -->
<g id="node6" class="node"><title>5</title>
<path fill="none" stroke="#d85656" stroke-width="2" stroke-dasharray="5,2" d="M675,-972C675,-972 595,-972 595,-972 589,-972 583,-966 583,-960 583,-960 583,-948 583,-948 583,-942 589,-936 595,-936 595,-936 675,-936 675,-936 681,-936 687,-942 687,-948 687,-948 687,-960 687,-960 687,-966 681,-972 675,-972"/>
<text text-anchor="middle" x="635" y="-957" font-family="sans" font-size="10.00">run_snippy</text>
<text text-anchor="middle" x="635" y="-946" font-family="sans" font-size="10.00">sample: first_isolate</text>
</g>
<!-- 8 -->
<g id="node9" class="node"><title>8</title>
<path fill="none" stroke="#56d8c1" stroke-width="2" stroke-dasharray="5,2" d="M473,-900C473,-900 429,-900 429,-900 423,-900 417,-894 417,-888 417,-888 417,-876 417,-876 417,-870 423,-864 429,-864 429,-864 473,-864 473,-864 479,-864 485,-870 485,-876 485,-876 485,-888 485,-888 485,-894 479,-900 473,-900"/>
<text text-anchor="middle" x="451" y="-879.5" font-family="sans" font-size="10.00">merge_vcfs</text>
</g>
<!-- 5&#45;&gt;8 -->
<g id="edge14" class="edge"><title>5&#45;&gt;8</title>
<path fill="none" stroke="grey" stroke-width="2" d="M589.989,-935.876C560.93,-924.821 523.323,-910.514 494.556,-899.57"/>
<polygon fill="grey" stroke="grey" points="495.755,-896.282 485.164,-895.997 493.266,-902.824 495.755,-896.282"/>
</g>
<!-- 5&#45;&gt;13 -->
<g id="edge22" class="edge"><title>5&#45;&gt;13</title>
<path fill="none" stroke="grey" stroke-width="2" d="M630.473,-935.966C617.778,-888.192 581.753,-752.623 566.245,-694.266"/>
<polygon fill="grey" stroke="grey" points="569.55,-693.072 563.599,-684.306 562.785,-694.87 569.55,-693.072"/>
</g>
<!-- 21 -->
<g id="node22" class="node"><title>21</title>
<path fill="none" stroke="#9fd856" stroke-width="2" stroke-dasharray="5,2" d="M461,-252C461,-252 379,-252 379,-252 373,-252 367,-246 367,-240 367,-240 367,-228 367,-228 367,-222 373,-216 379,-216 379,-216 461,-216 461,-216 467,-216 473,-222 473,-228 473,-228 473,-240 473,-240 473,-246 467,-252 461,-252"/>
<text text-anchor="middle" x="420" y="-231.5" font-family="sans" font-size="10.00">create_fasta_for_vcf</text>
</g>
<!-- 5&#45;&gt;21 -->
<g id="edge37" class="edge"><title>5&#45;&gt;21</title>
<path fill="none" stroke="grey" stroke-width="2" d="M649.421,-935.894C669.382,-910.416 703,-860.201 703,-811 703,-811 703,-811 703,-377 703,-279.377 566.806,-248.863 483.38,-239.329"/>
<polygon fill="grey" stroke="grey" points="483.546,-235.827 473.23,-238.242 482.801,-242.787 483.546,-235.827"/>
</g>
<!-- 5&#45;&gt;22 -->
<g id="edge41" class="edge"><title>5&#45;&gt;22</title>
<path fill="none" stroke="grey" stroke-width="2" d="M641.071,-935.76C649.837,-909.283 665,-856.858 665,-811 665,-811 665,-811 665,-593 665,-530.166 597.914,-492.127 542.642,-471.45"/>
<polygon fill="grey" stroke="grey" points="543.778,-468.139 533.183,-468.034 541.4,-474.723 543.778,-468.139"/>
</g>
<!-- 6 -->
<g id="node7" class="node"><title>6</title>
<path fill="none" stroke="#d87556" stroke-width="2" stroke-dasharray="5,2" d="M500.25,-828C500.25,-828 401.75,-828 401.75,-828 395.75,-828 389.75,-822 389.75,-816 389.75,-816 389.75,-804 389.75,-804 389.75,-798 395.75,-792 401.75,-792 401.75,-792 500.25,-792 500.25,-792 506.25,-792 512.25,-798 512.25,-804 512.25,-804 512.25,-816 512.25,-816 512.25,-822 506.25,-828 500.25,-828"/>
<text text-anchor="middle" x="451" y="-807.5" font-family="sans" font-size="10.00">filter_out_same_variants</text>
</g>
<!-- 6&#45;&gt;3 -->
<g id="edge6" class="edge"><title>6&#45;&gt;3</title>
<path fill="none" stroke="grey" stroke-width="2" d="M462.124,-791.697C467.355,-783.559 473.7,-773.689 479.478,-764.701"/>
<polygon fill="grey" stroke="grey" points="482.541,-766.409 485.004,-756.104 476.653,-762.623 482.541,-766.409"/>
</g>
<!-- 11 -->
<g id="node12" class="node"><title>11</title>
<path fill="none" stroke="#5692d8" stroke-width="2" stroke-dasharray="5,2" d="M451,-684C451,-684 365,-684 365,-684 359,-684 353,-678 353,-672 353,-672 353,-660 353,-660 353,-654 359,-648 365,-648 365,-648 451,-648 451,-648 457,-648 463,-654 463,-660 463,-660 463,-672 463,-672 463,-678 457,-684 451,-684"/>
<text text-anchor="middle" x="408" y="-663.5" font-family="sans" font-size="10.00">copy_input_to_output</text>
</g>
<!-- 6&#45;&gt;11 -->
<g id="edge18" class="edge"><title>6&#45;&gt;11</title>
<path fill="none" stroke="grey" stroke-width="2" d="M442.03,-791.711C437.04,-781.532 431.04,-768.282 427,-756 420.305,-735.645 415.371,-711.879 412.211,-694.028"/>
<polygon fill="grey" stroke="grey" points="415.637,-693.292 410.515,-684.017 408.735,-694.461 415.637,-693.292"/>
</g>
<!-- 7 -->
<g id="node8" class="node"><title>7</title>
<path fill="none" stroke="#56d882" stroke-width="2" stroke-dasharray="5,2" d="M324.25,-396C324.25,-396 279.75,-396 279.75,-396 273.75,-396 267.75,-390 267.75,-384 267.75,-384 267.75,-372 267.75,-372 267.75,-366 273.75,-360 279.75,-360 279.75,-360 324.25,-360 324.25,-360 330.25,-360 336.25,-366 336.25,-372 336.25,-372 336.25,-384 336.25,-384 336.25,-390 330.25,-396 324.25,-396"/>
<text text-anchor="middle" x="302" y="-375.5" font-family="sans" font-size="10.00">filter_by_AF</text>
</g>
<!-- 9 -->
<g id="node10" class="node"><title>9</title>
<path fill="none" stroke="#bed856" stroke-width="2" stroke-dasharray="5,2" d="M337.25,-324C337.25,-324 242.75,-324 242.75,-324 236.75,-324 230.75,-318 230.75,-312 230.75,-312 230.75,-300 230.75,-300 230.75,-294 236.75,-288 242.75,-288 242.75,-288 337.25,-288 337.25,-288 343.25,-288 349.25,-294 349.25,-300 349.25,-300 349.25,-312 349.25,-312 349.25,-318 343.25,-324 337.25,-324"/>
<text text-anchor="middle" x="290" y="-309" font-family="sans" font-size="10.00">split_final_vcf</text>
<text text-anchor="middle" x="290" y="-298" font-family="sans" font-size="10.00">sample: second_isolate</text>
</g>
<!-- 7&#45;&gt;9 -->
<g id="edge15" class="edge"><title>7&#45;&gt;9</title>
<path fill="none" stroke="grey" stroke-width="2" d="M299.034,-359.697C297.711,-351.983 296.122,-342.712 294.648,-334.112"/>
<polygon fill="grey" stroke="grey" points="298.072,-333.369 292.932,-324.104 291.172,-334.552 298.072,-333.369"/>
</g>
<!-- 7&#45;&gt;14 -->
<g id="edge26" class="edge"><title>7&#45;&gt;14</title>
<path fill="none" stroke="grey" stroke-width="2" d="M267.361,-362.103C250.912,-353.319 232.401,-340.634 221,-324 198.133,-290.637 202,-275.447 202,-235 202,-235 202,-235 202,-161 202,-119.484 218.037,-73.6123 229.802,-45.545"/>
<polygon fill="grey" stroke="grey" points="233.15,-46.6189 233.905,-36.051 226.725,-43.8415 233.15,-46.6189"/>
</g>
<!-- 20 -->
<g id="node21" class="node"><title>20</title>
<path fill="none" stroke="#bed856" stroke-width="2" stroke-dasharray="5,2" d="M460,-324C460,-324 380,-324 380,-324 374,-324 368,-318 368,-312 368,-312 368,-300 368,-300 368,-294 374,-288 380,-288 380,-288 460,-288 460,-288 466,-288 472,-294 472,-300 472,-300 472,-312 472,-312 472,-318 466,-324 460,-324"/>
<text text-anchor="middle" x="420" y="-309" font-family="sans" font-size="10.00">split_final_vcf</text>
<text text-anchor="middle" x="420" y="-298" font-family="sans" font-size="10.00">sample: first_isolate</text>
</g>
<!-- 7&#45;&gt;20 -->
<g id="edge36" class="edge"><title>7&#45;&gt;20</title>
<path fill="none" stroke="grey" stroke-width="2" d="M330.866,-359.876C346.295,-350.724 365.481,-339.342 382.097,-329.485"/>
<polygon fill="grey" stroke="grey" points="384.208,-332.302 391.023,-324.19 380.637,-326.282 384.208,-332.302"/>
</g>
<!-- 8&#45;&gt;6 -->
<g id="edge9" class="edge"><title>8&#45;&gt;6</title>
<path fill="none" stroke="grey" stroke-width="2" d="M451,-863.697C451,-855.983 451,-846.712 451,-838.112"/>
<polygon fill="grey" stroke="grey" points="454.5,-838.104 451,-828.104 447.5,-838.104 454.5,-838.104"/>
</g>
<!-- 12 -->
<g id="node13" class="node"><title>12</title>
<path fill="none" stroke="#9fd856" stroke-width="2" stroke-dasharray="5,2" d="M328,-252C328,-252 246,-252 246,-252 240,-252 234,-246 234,-240 234,-240 234,-228 234,-228 234,-222 240,-216 246,-216 246,-216 328,-216 328,-216 334,-216 340,-222 340,-228 340,-228 340,-240 340,-240 340,-246 334,-252 328,-252"/>
<text text-anchor="middle" x="287" y="-231.5" font-family="sans" font-size="10.00">create_fasta_for_vcf</text>
</g>
<!-- 9&#45;&gt;12 -->
<g id="edge19" class="edge"><title>9&#45;&gt;12</title>
<path fill="none" stroke="grey" stroke-width="2" d="M289.258,-287.697C288.928,-279.983 288.531,-270.712 288.162,-262.112"/>
<polygon fill="grey" stroke="grey" points="291.658,-261.945 287.733,-252.104 284.665,-262.245 291.658,-261.945"/>
</g>
<!-- 10 -->
<g id="node11" class="node"><title>10</title>
<path fill="none" stroke="#56b1d8" stroke-width="2" d="M162,-108C162,-108 12,-108 12,-108 6,-108 0,-102 0,-96 0,-96 0,-84 0,-84 0,-78 6,-72 12,-72 12,-72 162,-72 162,-72 168,-72 174,-78 174,-84 174,-84 174,-96 174,-96 174,-102 168,-108 162,-108"/>
<text text-anchor="middle" x="87" y="-87.5" font-family="sans" font-size="10.00">generate_raxml_tree_with_reference</text>
</g>
<!-- 10&#45;&gt;14 -->
<g id="edge23" class="edge"><title>10&#45;&gt;14</title>
<path fill="none" stroke="grey" stroke-width="2" d="M124.917,-71.8761C149.445,-60.7991 181.203,-46.4567 205.454,-35.5045"/>
<polygon fill="grey" stroke="grey" points="207.008,-38.6435 214.681,-31.3378 204.126,-32.2639 207.008,-38.6435"/>
</g>
<!-- 11&#45;&gt;2 -->
<g id="edge4" class="edge"><title>11&#45;&gt;2</title>
<path fill="none" stroke="grey" stroke-width="2" d="M430.247,-647.697C441.582,-638.881 455.53,-628.032 467.819,-618.474"/>
<polygon fill="grey" stroke="grey" points="470.264,-621.007 476.009,-612.104 465.966,-615.481 470.264,-621.007"/>
</g>
<!-- 11&#45;&gt;4 -->
<g id="edge8" class="edge"><title>11&#45;&gt;4</title>
<path fill="none" stroke="grey" stroke-width="2" d="M371.061,-647.876C350.51,-638.349 324.749,-626.407 302.911,-616.283"/>
<polygon fill="grey" stroke="grey" points="304.363,-613.099 293.819,-612.068 301.419,-619.45 304.363,-613.099"/>
</g>
<!-- 11&#45;&gt;7 -->
<g id="edge11" class="edge"><title>11&#45;&gt;7</title>
<path fill="none" stroke="grey" stroke-width="2" d="M397.634,-647.755C383.803,-624.142 359.284,-580.095 344,-540 326.621,-494.409 313.891,-438.892 307.241,-406.394"/>
<polygon fill="grey" stroke="grey" points="310.616,-405.421 305.221,-396.303 303.752,-406.795 310.616,-405.421"/>
</g>
<!-- 11&#45;&gt;18 -->
<g id="edge32" class="edge"><title>11&#45;&gt;18</title>
<path fill="none" stroke="grey" stroke-width="2" d="M409.689,-647.871C412.075,-623.67 416.458,-579.211 419.299,-550.393"/>
<polygon fill="grey" stroke="grey" points="422.807,-550.484 420.305,-540.189 415.841,-549.798 422.807,-550.484"/>
</g>
<!-- 19 -->
<g id="node20" class="node"><title>19</title>
<path fill="none" stroke="#56d8a2" stroke-width="2" stroke-dasharray="5,2" d="M323.25,-180C323.25,-180 250.75,-180 250.75,-180 244.75,-180 238.75,-174 238.75,-168 238.75,-168 238.75,-156 238.75,-156 238.75,-150 244.75,-144 250.75,-144 250.75,-144 323.25,-144 323.25,-144 329.25,-144 335.25,-150 335.25,-156 335.25,-156 335.25,-168 335.25,-168 335.25,-174 329.25,-180 323.25,-180"/>
<text text-anchor="middle" x="287" y="-159.5" font-family="sans" font-size="10.00">create_multi_fasta</text>
</g>
<!-- 12&#45;&gt;19 -->
<g id="edge35" class="edge"><title>12&#45;&gt;19</title>
<path fill="none" stroke="grey" stroke-width="2" d="M287,-215.697C287,-207.983 287,-198.712 287,-190.112"/>
<polygon fill="grey" stroke="grey" points="290.5,-190.104 287,-180.104 283.5,-190.104 290.5,-190.104"/>
</g>
<!-- 13&#45;&gt;2 -->
<g id="edge5" class="edge"><title>13&#45;&gt;2</title>
<path fill="none" stroke="grey" stroke-width="2" d="M543.921,-647.697C536.608,-639.305 527.69,-629.07 519.665,-619.861"/>
<polygon fill="grey" stroke="grey" points="522.114,-617.344 512.905,-612.104 516.836,-621.943 522.114,-617.344"/>
</g>
<!-- 15&#45;&gt;7 -->
<g id="edge12" class="edge"><title>15&#45;&gt;7</title>
<path fill="none" stroke="grey" stroke-width="2" d="M247.045,-431.697C256.062,-423.05 267.118,-412.449 276.943,-403.027"/>
<polygon fill="grey" stroke="grey" points="279.367,-405.552 284.163,-396.104 274.522,-400.499 279.367,-405.552"/>
</g>
<!-- 16 -->
<g id="node17" class="node"><title>16</title>
<path fill="none" stroke="#88d856" stroke-width="2" d="M466,-108C466,-108 366,-108 366,-108 360,-108 354,-102 354,-96 354,-96 354,-84 354,-84 354,-78 360,-72 366,-72 366,-72 466,-72 466,-72 472,-72 478,-78 478,-84 478,-84 478,-96 478,-96 478,-102 472,-108 466,-108"/>
<text text-anchor="middle" x="416" y="-87.5" font-family="sans" font-size="10.00">calculate_snp_distances</text>
</g>
<!-- 16&#45;&gt;14 -->
<g id="edge25" class="edge"><title>16&#45;&gt;14</title>
<path fill="none" stroke="grey" stroke-width="2" d="M373.435,-71.8761C344.365,-60.1814 306.248,-44.8469 278.552,-33.705"/>
<polygon fill="grey" stroke="grey" points="279.806,-30.4369 269.223,-29.9516 277.194,-36.9311 279.806,-30.4369"/>
</g>
<!-- 17 -->
<g id="node18" class="node"><title>17</title>
<path fill="none" stroke="#d85656" stroke-width="2" stroke-dasharray="5,2" d="M198.25,-972C198.25,-972 103.75,-972 103.75,-972 97.75,-972 91.75,-966 91.75,-960 91.75,-960 91.75,-948 91.75,-948 91.75,-942 97.75,-936 103.75,-936 103.75,-936 198.25,-936 198.25,-936 204.25,-936 210.25,-942 210.25,-948 210.25,-948 210.25,-960 210.25,-960 210.25,-966 204.25,-972 198.25,-972"/>
<text text-anchor="middle" x="151" y="-957" font-family="sans" font-size="10.00">run_snippy</text>
<text text-anchor="middle" x="151" y="-946" font-family="sans" font-size="10.00">sample: second_isolate</text>
</g>
<!-- 17&#45;&gt;0 -->
<g id="edge2" class="edge"><title>17&#45;&gt;0</title>
<path fill="none" stroke="grey" stroke-width="2" d="M157.313,-935.966C175.057,-888.093 225.474,-752.06 247.029,-693.904"/>
<polygon fill="grey" stroke="grey" points="250.392,-694.9 250.586,-684.306 243.829,-692.467 250.392,-694.9"/>
</g>
<!-- 17&#45;&gt;8 -->
<g id="edge13" class="edge"><title>17&#45;&gt;8</title>
<path fill="none" stroke="grey" stroke-width="2" d="M210.27,-939.17C268.062,-925.686 354.635,-905.485 406.689,-893.339"/>
<polygon fill="grey" stroke="grey" points="407.677,-896.703 416.62,-891.022 406.087,-889.886 407.677,-896.703"/>
</g>
<!-- 17&#45;&gt;10 -->
<g id="edge16" class="edge"><title>17&#45;&gt;10</title>
<path fill="none" stroke="grey" stroke-width="2" d="M134.509,-935.772C112.157,-910.534 75,-861.051 75,-811 75,-811 75,-811 75,-233 75,-192.853 79.8214,-146.548 83.352,-118.022"/>
<polygon fill="grey" stroke="grey" points="86.8356,-118.373 84.6292,-108.01 79.8919,-117.487 86.8356,-118.373"/>
</g>
<!-- 17&#45;&gt;12 -->
<g id="edge20" class="edge"><title>17&#45;&gt;12</title>
<path fill="none" stroke="grey" stroke-width="2" d="M143.31,-935.907C132.206,-909.623 113,-857.447 113,-811 113,-811 113,-811 113,-377 113,-316.926 176.024,-277.728 226.212,-256.038"/>
<polygon fill="grey" stroke="grey" points="227.856,-259.144 235.735,-252.061 225.159,-252.684 227.856,-259.144"/>
</g>
<!-- 17&#45;&gt;15 -->
<g id="edge28" class="edge"><title>17&#45;&gt;15</title>
<path fill="none" stroke="grey" stroke-width="2" d="M151,-935.951C151,-909.292 151,-856.115 151,-811 151,-811 151,-811 151,-593 151,-547.372 182.32,-502.552 205.266,-475.838"/>
<polygon fill="grey" stroke="grey" points="208.067,-477.955 212.075,-468.147 202.826,-473.314 208.067,-477.955"/>
</g>
<!-- 18&#45;&gt;15 -->
<g id="edge29" class="edge"><title>18&#45;&gt;15</title>
<path fill="none" stroke="grey" stroke-width="2" d="M374.787,-503.876C347.934,-494.137 314.12,-481.872 285.82,-471.608"/>
<polygon fill="grey" stroke="grey" points="286.654,-468.188 276.06,-468.068 284.267,-474.768 286.654,-468.188"/>
</g>
<!-- 18&#45;&gt;22 -->
<g id="edge39" class="edge"><title>18&#45;&gt;22</title>
<path fill="none" stroke="grey" stroke-width="2" d="M434.112,-503.697C439.868,-495.474 446.862,-485.483 453.206,-476.421"/>
<polygon fill="grey" stroke="grey" points="456.16,-478.304 459.027,-468.104 450.425,-474.29 456.16,-478.304"/>
</g>
<!-- 19&#45;&gt;1 -->
<g id="edge3" class="edge"><title>19&#45;&gt;1</title>
<path fill="none" stroke="grey" stroke-width="2" d="M286.011,-143.697C285.57,-135.983 285.041,-126.712 284.549,-118.112"/>
<polygon fill="grey" stroke="grey" points="288.042,-117.888 283.977,-108.104 281.054,-118.288 288.042,-117.888"/>
</g>
<!-- 19&#45;&gt;10 -->
<g id="edge17" class="edge"><title>19&#45;&gt;10</title>
<path fill="none" stroke="grey" stroke-width="2" d="M238.586,-144.055C210.542,-134.24 175.045,-121.816 145.452,-111.458"/>
<polygon fill="grey" stroke="grey" points="146.257,-108.032 135.662,-108.032 143.944,-114.639 146.257,-108.032"/>
</g>
<!-- 19&#45;&gt;16 -->
<g id="edge30" class="edge"><title>19&#45;&gt;16</title>
<path fill="none" stroke="grey" stroke-width="2" d="M318.557,-143.876C335.658,-134.596 356.982,-123.025 375.319,-113.075"/>
<polygon fill="grey" stroke="grey" points="377.202,-116.035 384.322,-108.19 373.863,-109.883 377.202,-116.035"/>
</g>
<!-- 20&#45;&gt;21 -->
<g id="edge38" class="edge"><title>20&#45;&gt;21</title>
<path fill="none" stroke="grey" stroke-width="2" d="M420,-287.697C420,-279.983 420,-270.712 420,-262.112"/>
<polygon fill="grey" stroke="grey" points="423.5,-262.104 420,-252.104 416.5,-262.104 423.5,-262.104"/>
</g>
<!-- 21&#45;&gt;19 -->
<g id="edge34" class="edge"><title>21&#45;&gt;19</title>
<path fill="none" stroke="grey" stroke-width="2" d="M387.465,-215.876C369.753,-206.554 347.647,-194.919 328.684,-184.939"/>
<polygon fill="grey" stroke="grey" points="330.14,-181.75 319.661,-180.19 326.88,-187.944 330.14,-181.75"/>
</g>
<!-- 22&#45;&gt;7 -->
<g id="edge10" class="edge"><title>22&#45;&gt;7</title>
<path fill="none" stroke="grey" stroke-width="2" d="M429.658,-431.876C404.27,-421.36 371.776,-407.901 345.926,-397.194"/>
<polygon fill="grey" stroke="grey" points="346.951,-393.83 336.372,-393.237 344.272,-400.297 346.951,-393.83"/>
</g>
</g>
</svg>
