<?xml version="1.0" encoding="UTF-8" standalone="no"?>
<!DOCTYPE svg PUBLIC "-//W3C//DTD SVG 1.1//EN"
 "http://www.w3.org/Graphics/SVG/1.1/DTD/svg11.dtd">
<!-- Generated by graphviz version 2.30.1 (20180420.1509)
 -->
<!-- Title: snakemake_dag Pages: 1 -->
<svg width="1360pt" height="1052pt"
 viewBox="0.00 0.00 1360.05 1052.00" xmlns="http://www.w3.org/2000/svg" xmlns:xlink="http://www.w3.org/1999/xlink">
<g id="graph0" class="graph" transform="scale(1 1) rotate(0) translate(4 1048)">
<title>snakemake_dag</title>
<polygon fill="white" stroke="white" points="-4,5 -4,-1048 1357.05,-1048 1357.05,5 -4,5"/>
<!-- 0 -->
<g id="node1" class="node"><title>0</title>
<path fill="none" stroke="#68d856" stroke-width="2" stroke-dasharray="5,2" d="M536,-756C536,-756 404,-756 404,-756 398,-756 392,-750 392,-744 392,-744 392,-732 392,-732 392,-726 398,-720 404,-720 404,-720 536,-720 536,-720 542,-720 548,-726 548,-732 548,-732 548,-744 548,-744 548,-750 542,-756 536,-756"/>
<text text-anchor="middle" x="470" y="-735.5" font-family="sans" font-size="10.00">extract_low_coverage_positions</text>
</g>
<!-- 10 -->
<g id="node11" class="node"><title>10</title>
<path fill="none" stroke="#56d89a" stroke-width="2" stroke-dasharray="5,2" d="M498,-684C498,-684 442,-684 442,-684 436,-684 430,-678 430,-672 430,-672 430,-660 430,-660 430,-654 436,-648 442,-648 442,-648 498,-648 498,-648 504,-648 510,-654 510,-660 510,-660 510,-672 510,-672 510,-678 504,-684 498,-684"/>
<text text-anchor="middle" x="470" y="-663.5" font-family="sans" font-size="10.00">filter_coverage</text>
</g>
<!-- 0&#45;&gt;10 -->
<g id="edge29" class="edge"><title>0&#45;&gt;10</title>
<path fill="none" stroke="grey" stroke-width="2" d="M470,-719.697C470,-711.983 470,-702.712 470,-694.112"/>
<polygon fill="grey" stroke="grey" points="473.5,-694.104 470,-684.104 466.5,-694.104 473.5,-694.104"/>
</g>
<!-- 1 -->
<g id="node2" class="node"><title>1</title>
<path fill="none" stroke="#68d856" stroke-width="2" stroke-dasharray="5,2" d="M362,-756C362,-756 230,-756 230,-756 224,-756 218,-750 218,-744 218,-744 218,-732 218,-732 218,-726 224,-720 230,-720 230,-720 362,-720 362,-720 368,-720 374,-726 374,-732 374,-732 374,-744 374,-744 374,-750 368,-756 362,-756"/>
<text text-anchor="middle" x="296" y="-735.5" font-family="sans" font-size="10.00">extract_low_coverage_positions</text>
</g>
<!-- 23 -->
<g id="node24" class="node"><title>23</title>
<path fill="none" stroke="#56d89a" stroke-width="2" stroke-dasharray="5,2" d="M379,-684C379,-684 323,-684 323,-684 317,-684 311,-678 311,-672 311,-672 311,-660 311,-660 311,-654 317,-648 323,-648 323,-648 379,-648 379,-648 385,-648 391,-654 391,-660 391,-660 391,-672 391,-672 391,-678 385,-684 379,-684"/>
<text text-anchor="middle" x="351" y="-663.5" font-family="sans" font-size="10.00">filter_coverage</text>
</g>
<!-- 1&#45;&gt;23 -->
<g id="edge52" class="edge"><title>1&#45;&gt;23</title>
<path fill="none" stroke="grey" stroke-width="2" d="M309.596,-719.697C316.123,-711.389 324.068,-701.277 331.247,-692.141"/>
<polygon fill="grey" stroke="grey" points="334.135,-694.13 337.561,-684.104 328.631,-689.805 334.135,-694.13"/>
</g>
<!-- 2 -->
<g id="node3" class="node"><title>2</title>
<path fill="none" stroke="#56d89a" stroke-width="2" stroke-dasharray="5,2" d="M718,-684C718,-684 662,-684 662,-684 656,-684 650,-678 650,-672 650,-672 650,-660 650,-660 650,-654 656,-648 662,-648 662,-648 718,-648 718,-648 724,-648 730,-654 730,-660 730,-660 730,-672 730,-672 730,-678 724,-684 718,-684"/>
<text text-anchor="middle" x="690" y="-663.5" font-family="sans" font-size="10.00">filter_coverage</text>
</g>
<!-- 25 -->
<g id="node26" class="node"><title>25</title>
<path fill="none" stroke="#80d856" stroke-width="2" stroke-dasharray="5,2" d="M691.25,-612C691.25,-612 578.75,-612 578.75,-612 572.75,-612 566.75,-606 566.75,-600 566.75,-600 566.75,-588 566.75,-588 566.75,-582 572.75,-576 578.75,-576 578.75,-576 691.25,-576 691.25,-576 697.25,-576 703.25,-582 703.25,-588 703.25,-588 703.25,-600 703.25,-600 703.25,-606 697.25,-612 691.25,-612"/>
<text text-anchor="middle" x="635" y="-591.5" font-family="sans" font-size="10.00">create_all_position_bed_file</text>
</g>
<!-- 2&#45;&gt;25 -->
<g id="edge57" class="edge"><title>2&#45;&gt;25</title>
<path fill="none" stroke="grey" stroke-width="2" d="M676.404,-647.697C669.877,-639.389 661.932,-629.277 654.753,-620.141"/>
<polygon fill="grey" stroke="grey" points="657.369,-617.805 648.439,-612.104 651.865,-622.13 657.369,-617.805"/>
</g>
<!-- 31 -->
<g id="node32" class="node"><title>31</title>
<path fill="none" stroke="#d89556" stroke-width="2" stroke-dasharray="5,2" d="M690,-540C690,-540 578,-540 578,-540 572,-540 566,-534 566,-528 566,-528 566,-516 566,-516 566,-510 572,-504 578,-504 578,-504 690,-504 690,-504 696,-504 702,-510 702,-516 702,-516 702,-528 702,-528 702,-534 696,-540 690,-540"/>
<text text-anchor="middle" x="634" y="-519.5" font-family="sans" font-size="10.00">AF_by_position_calculation</text>
</g>
<!-- 2&#45;&gt;31 -->
<g id="edge68" class="edge"><title>2&#45;&gt;31</title>
<path fill="none" stroke="grey" stroke-width="2" d="M701.215,-647.716C711.751,-629.106 724.215,-599.068 712,-576 705.403,-563.542 694.421,-553.469 682.748,-545.586"/>
<polygon fill="grey" stroke="grey" points="684.515,-542.562 674.18,-540.229 680.805,-548.498 684.515,-542.562"/>
</g>
<!-- 3 -->
<g id="node4" class="node"><title>3</title>
<path fill="none" stroke="#56d89a" stroke-width="2" stroke-dasharray="5,2" d="M816,-684C816,-684 760,-684 760,-684 754,-684 748,-678 748,-672 748,-672 748,-660 748,-660 748,-654 754,-648 760,-648 760,-648 816,-648 816,-648 822,-648 828,-654 828,-660 828,-660 828,-672 828,-672 828,-678 822,-684 816,-684"/>
<text text-anchor="middle" x="788" y="-663.5" font-family="sans" font-size="10.00">filter_coverage</text>
</g>
<!-- 3&#45;&gt;25 -->
<g id="edge58" class="edge"><title>3&#45;&gt;25</title>
<path fill="none" stroke="grey" stroke-width="2" d="M750.572,-647.876C729.749,-638.349 703.646,-626.407 681.519,-616.283"/>
<polygon fill="grey" stroke="grey" points="682.856,-613.046 672.306,-612.068 679.944,-619.411 682.856,-613.046"/>
</g>
<!-- 30 -->
<g id="node31" class="node"><title>30</title>
<path fill="none" stroke="#d89556" stroke-width="2" stroke-dasharray="5,2" d="M844,-540C844,-540 732,-540 732,-540 726,-540 720,-534 720,-528 720,-528 720,-516 720,-516 720,-510 726,-504 732,-504 732,-504 844,-504 844,-504 850,-504 856,-510 856,-516 856,-516 856,-528 856,-528 856,-534 850,-540 844,-540"/>
<text text-anchor="middle" x="788" y="-519.5" font-family="sans" font-size="10.00">AF_by_position_calculation</text>
</g>
<!-- 3&#45;&gt;30 -->
<g id="edge65" class="edge"><title>3&#45;&gt;30</title>
<path fill="none" stroke="grey" stroke-width="2" d="M788,-647.871C788,-623.67 788,-579.211 788,-550.393"/>
<polygon fill="grey" stroke="grey" points="791.5,-550.189 788,-540.189 784.5,-550.189 791.5,-550.189"/>
</g>
<!-- 4 -->
<g id="node5" class="node"><title>4</title>
<path fill="none" stroke="#566bd8" stroke-width="2" stroke-dasharray="5,2" d="M687,-324C687,-324 605,-324 605,-324 599,-324 593,-318 593,-312 593,-312 593,-300 593,-300 593,-294 599,-288 605,-288 605,-288 687,-288 687,-288 693,-288 699,-294 699,-300 699,-300 699,-312 699,-312 699,-318 693,-324 687,-324"/>
<text text-anchor="middle" x="646" y="-303.5" font-family="sans" font-size="10.00">create_fasta_for_vcf</text>
</g>
<!-- 9 -->
<g id="node10" class="node"><title>9</title>
<path fill="none" stroke="#56d8d8" stroke-width="2" stroke-dasharray="5,2" d="M485.25,-252C485.25,-252 412.75,-252 412.75,-252 406.75,-252 400.75,-246 400.75,-240 400.75,-240 400.75,-228 400.75,-228 400.75,-222 406.75,-216 412.75,-216 412.75,-216 485.25,-216 485.25,-216 491.25,-216 497.25,-222 497.25,-228 497.25,-228 497.25,-240 497.25,-240 497.25,-246 491.25,-252 485.25,-252"/>
<text text-anchor="middle" x="449" y="-231.5" font-family="sans" font-size="10.00">create_multi_fasta</text>
</g>
<!-- 4&#45;&gt;9 -->
<g id="edge26" class="edge"><title>4&#45;&gt;9</title>
<path fill="none" stroke="grey" stroke-width="2" d="M598.06,-287.966C570.535,-278.185 535.783,-265.836 506.759,-255.524"/>
<polygon fill="grey" stroke="grey" points="507.749,-252.161 497.155,-252.111 505.406,-258.757 507.749,-252.161"/>
</g>
<!-- 5 -->
<g id="node6" class="node"><title>5</title>
<path fill="none" stroke="#d89556" stroke-width="2" stroke-dasharray="5,2" d="M344,-540C344,-540 232,-540 232,-540 226,-540 220,-534 220,-528 220,-528 220,-516 220,-516 220,-510 226,-504 232,-504 232,-504 344,-504 344,-504 350,-504 356,-510 356,-516 356,-516 356,-528 356,-528 356,-534 350,-540 344,-540"/>
<text text-anchor="middle" x="288" y="-519.5" font-family="sans" font-size="10.00">AF_by_position_calculation</text>
</g>
<!-- 32 -->
<g id="node33" class="node"><title>32</title>
<path fill="none" stroke="#56d86b" stroke-width="2" stroke-dasharray="5,2" d="M541.25,-468C541.25,-468 496.75,-468 496.75,-468 490.75,-468 484.75,-462 484.75,-456 484.75,-456 484.75,-444 484.75,-444 484.75,-438 490.75,-432 496.75,-432 496.75,-432 541.25,-432 541.25,-432 547.25,-432 553.25,-438 553.25,-444 553.25,-444 553.25,-456 553.25,-456 553.25,-462 547.25,-468 541.25,-468"/>
<text text-anchor="middle" x="519" y="-447.5" font-family="sans" font-size="10.00">filter_by_AF</text>
</g>
<!-- 5&#45;&gt;32 -->
<g id="edge73" class="edge"><title>5&#45;&gt;32</title>
<path fill="none" stroke="grey" stroke-width="2" d="M344.214,-503.966C384.253,-491.832 437.334,-475.747 474.453,-464.499"/>
<polygon fill="grey" stroke="grey" points="475.92,-467.712 484.475,-461.462 473.89,-461.013 475.92,-467.712"/>
</g>
<!-- 6 -->
<g id="node7" class="node"><title>6</title>
<path fill="none" stroke="#d8ac56" stroke-width="2" stroke-dasharray="5,2" d="M281,-36C281,-36 251,-36 251,-36 245,-36 239,-30 239,-24 239,-24 239,-12 239,-12 239,-6 245,-0 251,-0 251,-0 281,-0 281,-0 287,-0 293,-6 293,-12 293,-12 293,-24 293,-24 293,-30 287,-36 281,-36"/>
<text text-anchor="middle" x="266" y="-15.5" font-family="sans" font-size="10.00">all</text>
</g>
<!-- 7 -->
<g id="node8" class="node"><title>7</title>
<path fill="none" stroke="#59d856" stroke-width="2" stroke-dasharray="5,2" d="M827.25,-396C827.25,-396 732.75,-396 732.75,-396 726.75,-396 720.75,-390 720.75,-384 720.75,-384 720.75,-372 720.75,-372 720.75,-366 726.75,-360 732.75,-360 732.75,-360 827.25,-360 827.25,-360 833.25,-360 839.25,-366 839.25,-372 839.25,-372 839.25,-384 839.25,-384 839.25,-390 833.25,-396 827.25,-396"/>
<text text-anchor="middle" x="780" y="-381" font-family="sans" font-size="10.00">split_final_vcf</text>
<text text-anchor="middle" x="780" y="-370" font-family="sans" font-size="10.00">sample: second_isolate</text>
</g>
<!-- 26 -->
<g id="node27" class="node"><title>26</title>
<path fill="none" stroke="#566bd8" stroke-width="2" stroke-dasharray="5,2" d="M821,-324C821,-324 739,-324 739,-324 733,-324 727,-318 727,-312 727,-312 727,-300 727,-300 727,-294 733,-288 739,-288 739,-288 821,-288 821,-288 827,-288 833,-294 833,-300 833,-300 833,-312 833,-312 833,-318 827,-324 821,-324"/>
<text text-anchor="middle" x="780" y="-303.5" font-family="sans" font-size="10.00">create_fasta_for_vcf</text>
</g>
<!-- 7&#45;&gt;26 -->
<g id="edge61" class="edge"><title>7&#45;&gt;26</title>
<path fill="none" stroke="grey" stroke-width="2" d="M780,-359.697C780,-351.983 780,-342.712 780,-334.112"/>
<polygon fill="grey" stroke="grey" points="783.5,-334.104 780,-324.104 776.5,-334.104 783.5,-334.104"/>
</g>
<!-- 8 -->
<g id="node9" class="node"><title>8</title>
<path fill="none" stroke="#56d8a9" stroke-width="2" stroke-dasharray="5,2" d="M687,-972C687,-972 643,-972 643,-972 637,-972 631,-966 631,-960 631,-960 631,-948 631,-948 631,-942 637,-936 643,-936 643,-936 687,-936 687,-936 693,-936 699,-942 699,-948 699,-948 699,-960 699,-960 699,-966 693,-972 687,-972"/>
<text text-anchor="middle" x="665" y="-951.5" font-family="sans" font-size="10.00">merge_vcfs</text>
</g>
<!-- 24 -->
<g id="node25" class="node"><title>24</title>
<path fill="none" stroke="#5682d8" stroke-width="2" stroke-dasharray="5,2" d="M714.25,-900C714.25,-900 615.75,-900 615.75,-900 609.75,-900 603.75,-894 603.75,-888 603.75,-888 603.75,-876 603.75,-876 603.75,-870 609.75,-864 615.75,-864 615.75,-864 714.25,-864 714.25,-864 720.25,-864 726.25,-870 726.25,-876 726.25,-876 726.25,-888 726.25,-888 726.25,-894 720.25,-900 714.25,-900"/>
<text text-anchor="middle" x="665" y="-879.5" font-family="sans" font-size="10.00">filter_out_same_variants</text>
</g>
<!-- 8&#45;&gt;24 -->
<g id="edge54" class="edge"><title>8&#45;&gt;24</title>
<path fill="none" stroke="grey" stroke-width="2" d="M665,-935.697C665,-927.983 665,-918.712 665,-910.112"/>
<polygon fill="grey" stroke="grey" points="668.5,-910.104 665,-900.104 661.5,-910.104 668.5,-910.104"/>
</g>
<!-- 11 -->
<g id="node12" class="node"><title>11</title>
<path fill="none" stroke="#d8c356" stroke-width="2" stroke-dasharray="5,2" d="M306.25,-108C306.25,-108 225.75,-108 225.75,-108 219.75,-108 213.75,-102 213.75,-96 213.75,-96 213.75,-84 213.75,-84 213.75,-78 219.75,-72 225.75,-72 225.75,-72 306.25,-72 306.25,-72 312.25,-72 318.25,-78 318.25,-84 318.25,-84 318.25,-96 318.25,-96 318.25,-102 312.25,-108 306.25,-108"/>
<text text-anchor="middle" x="266" y="-87.5" font-family="sans" font-size="10.00">generate_raxml_tree</text>
</g>
<!-- 9&#45;&gt;11 -->
<g id="edge30" class="edge"><title>9&#45;&gt;11</title>
<path fill="none" stroke="grey" stroke-width="2" d="M412.359,-215.968C393.779,-206.555 371.33,-193.952 353,-180 328.026,-160.991 303.385,-134.902 286.738,-115.886"/>
<polygon fill="grey" stroke="grey" points="289.298,-113.495 280.115,-108.211 283.998,-118.068 289.298,-113.495"/>
</g>
<!-- 12 -->
<g id="node13" class="node"><title>12</title>
<path fill="none" stroke="#56c1d8" stroke-width="2" stroke-dasharray="5,2" d="M524,-180C524,-180 374,-180 374,-180 368,-180 362,-174 362,-168 362,-168 362,-156 362,-156 362,-150 368,-144 374,-144 374,-144 524,-144 524,-144 530,-144 536,-150 536,-156 536,-156 536,-168 536,-168 536,-174 530,-180 524,-180"/>
<text text-anchor="middle" x="449" y="-159.5" font-family="sans" font-size="10.00">generate_raxml_tree_with_reference</text>
</g>
<!-- 9&#45;&gt;12 -->
<g id="edge31" class="edge"><title>9&#45;&gt;12</title>
<path fill="none" stroke="grey" stroke-width="2" d="M449,-215.697C449,-207.983 449,-198.712 449,-190.112"/>
<polygon fill="grey" stroke="grey" points="452.5,-190.104 449,-180.104 445.5,-190.104 452.5,-190.104"/>
</g>
<!-- 21 -->
<g id="node22" class="node"><title>21</title>
<path fill="none" stroke="#569ad8" stroke-width="2" stroke-dasharray="5,2" d="M235,-180C235,-180 135,-180 135,-180 129,-180 123,-174 123,-168 123,-168 123,-156 123,-156 123,-150 129,-144 135,-144 135,-144 235,-144 235,-144 241,-144 247,-150 247,-156 247,-156 247,-168 247,-168 247,-174 241,-180 235,-180"/>
<text text-anchor="middle" x="185" y="-159.5" font-family="sans" font-size="10.00">calculate_snp_distances</text>
</g>
<!-- 9&#45;&gt;21 -->
<g id="edge48" class="edge"><title>9&#45;&gt;21</title>
<path fill="none" stroke="grey" stroke-width="2" d="M400.578,-220.161C360.361,-209.497 302.559,-194.171 256.93,-182.072"/>
<polygon fill="grey" stroke="grey" points="257.657,-178.644 247.094,-179.464 255.863,-185.411 257.657,-178.644"/>
</g>
<!-- 22 -->
<g id="node23" class="node"><title>22</title>
<path fill="none" stroke="#d89556" stroke-width="2" stroke-dasharray="5,2" d="M498,-540C498,-540 386,-540 386,-540 380,-540 374,-534 374,-528 374,-528 374,-516 374,-516 374,-510 380,-504 386,-504 386,-504 498,-504 498,-504 504,-504 510,-510 510,-516 510,-516 510,-528 510,-528 510,-534 504,-540 498,-540"/>
<text text-anchor="middle" x="442" y="-519.5" font-family="sans" font-size="10.00">AF_by_position_calculation</text>
</g>
<!-- 10&#45;&gt;22 -->
<g id="edge51" class="edge"><title>10&#45;&gt;22</title>
<path fill="none" stroke="grey" stroke-width="2" d="M466.623,-647.871C461.829,-623.564 453.007,-578.819 447.327,-550.013"/>
<polygon fill="grey" stroke="grey" points="450.758,-549.323 445.389,-540.189 443.89,-550.677 450.758,-549.323"/>
</g>
<!-- 10&#45;&gt;25 -->
<g id="edge59" class="edge"><title>10&#45;&gt;25</title>
<path fill="none" stroke="grey" stroke-width="2" d="M510.364,-647.876C533.02,-638.264 561.473,-626.193 585.47,-616.013"/>
<polygon fill="grey" stroke="grey" points="586.929,-619.196 594.768,-612.068 584.195,-612.752 586.929,-619.196"/>
</g>
<!-- 11&#45;&gt;6 -->
<g id="edge15" class="edge"><title>11&#45;&gt;6</title>
<path fill="none" stroke="grey" stroke-width="2" d="M266,-71.6966C266,-63.9827 266,-54.7125 266,-46.1124"/>
<polygon fill="grey" stroke="grey" points="269.5,-46.1043 266,-36.1043 262.5,-46.1044 269.5,-46.1043"/>
</g>
<!-- 12&#45;&gt;6 -->
<g id="edge16" class="edge"><title>12&#45;&gt;6</title>
<path fill="none" stroke="grey" stroke-width="2" d="M450.113,-143.665C450.41,-123.875 447.785,-91.7036 430,-72 397.563,-36.0639 340.622,-24.3815 303.106,-20.6499"/>
<polygon fill="grey" stroke="grey" points="303.337,-17.157 293.076,-19.7947 302.742,-24.1317 303.337,-17.157"/>
</g>
<!-- 18 -->
<g id="node19" class="node"><title>18</title>
<path fill="none" stroke="#c6d856" stroke-width="2" stroke-dasharray="5,2" d="M409,-108C409,-108 349,-108 349,-108 343,-108 337,-102 337,-96 337,-96 337,-84 337,-84 337,-78 343,-72 349,-72 349,-72 409,-72 409,-72 415,-72 421,-78 421,-84 421,-84 421,-96 421,-96 421,-102 415,-108 409,-108"/>
<text text-anchor="middle" x="379" y="-87.5" font-family="sans" font-size="10.00">summary_stats</text>
</g>
<!-- 12&#45;&gt;18 -->
<g id="edge41" class="edge"><title>12&#45;&gt;18</title>
<path fill="none" stroke="grey" stroke-width="2" d="M431.697,-143.697C423.135,-135.135 412.656,-124.656 403.304,-115.304"/>
<polygon fill="grey" stroke="grey" points="405.65,-112.701 396.104,-108.104 400.701,-117.65 405.65,-112.701"/>
</g>
<!-- 13 -->
<g id="node14" class="node"><title>13</title>
<path fill="none" stroke="#68d856" stroke-width="2" stroke-dasharray="5,2" d="M1012,-756C1012,-756 880,-756 880,-756 874,-756 868,-750 868,-744 868,-744 868,-732 868,-732 868,-726 874,-720 880,-720 880,-720 1012,-720 1012,-720 1018,-720 1024,-726 1024,-732 1024,-732 1024,-744 1024,-744 1024,-750 1018,-756 1012,-756"/>
<text text-anchor="middle" x="946" y="-735.5" font-family="sans" font-size="10.00">extract_low_coverage_positions</text>
</g>
<!-- 13&#45;&gt;3 -->
<g id="edge8" class="edge"><title>13&#45;&gt;3</title>
<path fill="none" stroke="grey" stroke-width="2" d="M907.349,-719.876C885.749,-710.307 858.649,-698.3 835.734,-688.148"/>
<polygon fill="grey" stroke="grey" points="837.086,-684.919 826.526,-684.068 834.251,-691.319 837.086,-684.919"/>
</g>
<!-- 14 -->
<g id="node15" class="node"><title>14</title>
<path fill="none" stroke="#68d856" stroke-width="2" stroke-dasharray="5,2" d="M838,-756C838,-756 706,-756 706,-756 700,-756 694,-750 694,-744 694,-744 694,-732 694,-732 694,-726 700,-720 706,-720 706,-720 838,-720 838,-720 844,-720 850,-726 850,-732 850,-732 850,-744 850,-744 850,-750 844,-756 838,-756"/>
<text text-anchor="middle" x="772" y="-735.5" font-family="sans" font-size="10.00">extract_low_coverage_positions</text>
</g>
<!-- 14&#45;&gt;2 -->
<g id="edge6" class="edge"><title>14&#45;&gt;2</title>
<path fill="none" stroke="grey" stroke-width="2" d="M751.73,-719.697C741.502,-710.965 728.939,-700.24 717.822,-690.75"/>
<polygon fill="grey" stroke="grey" points="719.915,-687.935 710.037,-684.104 715.37,-693.259 719.915,-687.935"/>
</g>
<!-- 15 -->
<g id="node16" class="node"><title>15</title>
<path fill="none" stroke="#566bd8" stroke-width="2" stroke-dasharray="5,2" d="M435,-324C435,-324 353,-324 353,-324 347,-324 341,-318 341,-312 341,-312 341,-300 341,-300 341,-294 347,-288 353,-288 353,-288 435,-288 435,-288 441,-288 447,-294 447,-300 447,-300 447,-312 447,-312 447,-318 441,-324 435,-324"/>
<text text-anchor="middle" x="394" y="-303.5" font-family="sans" font-size="10.00">create_fasta_for_vcf</text>
</g>
<!-- 15&#45;&gt;9 -->
<g id="edge24" class="edge"><title>15&#45;&gt;9</title>
<path fill="none" stroke="grey" stroke-width="2" d="M407.596,-287.697C414.123,-279.389 422.068,-269.277 429.247,-260.141"/>
<polygon fill="grey" stroke="grey" points="432.135,-262.13 435.561,-252.104 426.631,-257.805 432.135,-262.13"/>
</g>
<!-- 16 -->
<g id="node17" class="node"><title>16</title>
<path fill="none" stroke="#d6d856" stroke-width="2" stroke-dasharray="5,2" d="M155.25,-1044C155.25,-1044 72.75,-1044 72.75,-1044 66.75,-1044 60.75,-1038 60.75,-1032 60.75,-1032 60.75,-1020 60.75,-1020 60.75,-1014 66.75,-1008 72.75,-1008 72.75,-1008 155.25,-1008 155.25,-1008 161.25,-1008 167.25,-1014 167.25,-1020 167.25,-1020 167.25,-1032 167.25,-1032 167.25,-1038 161.25,-1044 155.25,-1044"/>
<text text-anchor="middle" x="114" y="-1029" font-family="sans" font-size="10.00">run_snippy</text>
<text text-anchor="middle" x="114" y="-1018" font-family="sans" font-size="10.00">sample: third_isolate</text>
</g>
<!-- 16&#45;&gt;1 -->
<g id="edge3" class="edge"><title>16&#45;&gt;1</title>
<path fill="none" stroke="grey" stroke-width="2" d="M124.84,-1007.97C155.494,-959.795 242.949,-822.366 279.563,-764.829"/>
<polygon fill="grey" stroke="grey" points="282.571,-766.622 284.987,-756.306 276.665,-762.864 282.571,-766.622"/>
</g>
<!-- 16&#45;&gt;5 -->
<g id="edge13" class="edge"><title>16&#45;&gt;5</title>
<path fill="none" stroke="grey" stroke-width="2" d="M114,-1007.95C114,-981.292 114,-928.115 114,-883 114,-883 114,-883 114,-809 114,-701.841 107.423,-658.343 176,-576 187.335,-562.389 202.965,-552.051 218.955,-544.288"/>
<polygon fill="grey" stroke="grey" points="220.722,-547.33 228.381,-540.01 217.829,-540.956 220.722,-547.33"/>
</g>
<!-- 16&#45;&gt;8 -->
<g id="edge21" class="edge"><title>16&#45;&gt;8</title>
<path fill="none" stroke="grey" stroke-width="2" d="M167.306,-1014.4C179.655,-1012.12 192.763,-1009.85 205,-1008 357.079,-985.062 538.764,-966.808 620.867,-959.048"/>
<polygon fill="grey" stroke="grey" points="621.216,-962.53 630.844,-958.11 620.561,-955.561 621.216,-962.53"/>
</g>
<!-- 16&#45;&gt;15 -->
<g id="edge38" class="edge"><title>16&#45;&gt;15</title>
<path fill="none" stroke="grey" stroke-width="2" d="M106.31,-1007.91C95.2064,-981.623 76,-929.447 76,-883 76,-883 76,-883 76,-449 76,-338.563 237.883,-313.43 330.645,-308.093"/>
<polygon fill="grey" stroke="grey" points="330.967,-311.582 340.774,-307.573 330.608,-304.591 330.967,-311.582"/>
</g>
<!-- 16&#45;&gt;18 -->
<g id="edge43" class="edge"><title>16&#45;&gt;18</title>
<path fill="none" stroke="grey" stroke-width="2" d="M86.9836,-1007.96C53.2722,-984.367 0,-938.325 0,-883 0,-883 0,-883 0,-305 0,-225.682 12.4244,-190.058 77,-144 168.393,-78.815 217.686,-133.537 327,-108 327.101,-107.976 327.202,-107.953 327.304,-107.929"/>
<polygon fill="grey" stroke="grey" points="328.087,-111.342 336.888,-105.443 326.329,-104.566 328.087,-111.342"/>
</g>
<!-- 17 -->
<g id="node18" class="node"><title>17</title>
<path fill="none" stroke="#59d856" stroke-width="2" stroke-dasharray="5,2" d="M559,-396C559,-396 479,-396 479,-396 473,-396 467,-390 467,-384 467,-384 467,-372 467,-372 467,-366 473,-360 479,-360 479,-360 559,-360 559,-360 565,-360 571,-366 571,-372 571,-372 571,-384 571,-384 571,-390 565,-396 559,-396"/>
<text text-anchor="middle" x="519" y="-381" font-family="sans" font-size="10.00">split_final_vcf</text>
<text text-anchor="middle" x="519" y="-370" font-family="sans" font-size="10.00">sample: first_isolate</text>
</g>
<!-- 33 -->
<g id="node34" class="node"><title>33</title>
<path fill="none" stroke="#566bd8" stroke-width="2" stroke-dasharray="5,2" d="M559,-324C559,-324 477,-324 477,-324 471,-324 465,-318 465,-312 465,-312 465,-300 465,-300 465,-294 471,-288 477,-288 477,-288 559,-288 559,-288 565,-288 571,-294 571,-300 571,-300 571,-312 571,-312 571,-318 565,-324 559,-324"/>
<text text-anchor="middle" x="518" y="-303.5" font-family="sans" font-size="10.00">create_fasta_for_vcf</text>
</g>
<!-- 17&#45;&gt;33 -->
<g id="edge75" class="edge"><title>17&#45;&gt;33</title>
<path fill="none" stroke="grey" stroke-width="2" d="M518.753,-359.697C518.643,-351.983 518.51,-342.712 518.387,-334.112"/>
<polygon fill="grey" stroke="grey" points="521.887,-334.053 518.244,-324.104 514.888,-334.153 521.887,-334.053"/>
</g>
<!-- 18&#45;&gt;6 -->
<g id="edge17" class="edge"><title>18&#45;&gt;6</title>
<path fill="none" stroke="grey" stroke-width="2" d="M351.357,-71.8761C336.472,-62.6553 317.934,-51.1717 301.941,-41.2646"/>
<polygon fill="grey" stroke="grey" points="303.702,-38.238 293.358,-35.9471 300.015,-44.1887 303.702,-38.238"/>
</g>
<!-- 19 -->
<g id="node20" class="node"><title>19</title>
<path fill="none" stroke="#59d856" stroke-width="2" stroke-dasharray="5,2" d="M436.25,-396C436.25,-396 353.75,-396 353.75,-396 347.75,-396 341.75,-390 341.75,-384 341.75,-384 341.75,-372 341.75,-372 341.75,-366 347.75,-360 353.75,-360 353.75,-360 436.25,-360 436.25,-360 442.25,-360 448.25,-366 448.25,-372 448.25,-372 448.25,-384 448.25,-384 448.25,-390 442.25,-396 436.25,-396"/>
<text text-anchor="middle" x="395" y="-381" font-family="sans" font-size="10.00">split_final_vcf</text>
<text text-anchor="middle" x="395" y="-370" font-family="sans" font-size="10.00">sample: third_isolate</text>
</g>
<!-- 19&#45;&gt;15 -->
<g id="edge37" class="edge"><title>19&#45;&gt;15</title>
<path fill="none" stroke="grey" stroke-width="2" d="M394.753,-359.697C394.643,-351.983 394.51,-342.712 394.387,-334.112"/>
<polygon fill="grey" stroke="grey" points="397.887,-334.053 394.244,-324.104 390.888,-334.153 397.887,-334.053"/>
</g>
<!-- 20 -->
<g id="node21" class="node"><title>20</title>
<path fill="none" stroke="#afd856" stroke-width="2" stroke-dasharray="5,2" d="M664,-756C664,-756 578,-756 578,-756 572,-756 566,-750 566,-744 566,-744 566,-732 566,-732 566,-726 572,-720 578,-720 578,-720 664,-720 664,-720 670,-720 676,-726 676,-732 676,-732 676,-744 676,-744 676,-750 670,-756 664,-756"/>
<text text-anchor="middle" x="621" y="-735.5" font-family="sans" font-size="10.00">copy_input_to_output</text>
</g>
<!-- 20&#45;&gt;2 -->
<g id="edge5" class="edge"><title>20&#45;&gt;2</title>
<path fill="none" stroke="grey" stroke-width="2" d="M638.056,-719.697C646.495,-711.135 656.825,-700.656 666.043,-691.304"/>
<polygon fill="grey" stroke="grey" points="668.613,-693.683 673.14,-684.104 663.627,-688.769 668.613,-693.683"/>
</g>
<!-- 20&#45;&gt;3 -->
<g id="edge7" class="edge"><title>20&#45;&gt;3</title>
<path fill="none" stroke="grey" stroke-width="2" d="M661.853,-719.876C684.955,-710.193 714.01,-698.014 738.411,-687.786"/>
<polygon fill="grey" stroke="grey" points="739.988,-690.92 747.857,-683.826 737.282,-684.464 739.988,-690.92"/>
</g>
<!-- 20&#45;&gt;10 -->
<g id="edge28" class="edge"><title>20&#45;&gt;10</title>
<path fill="none" stroke="grey" stroke-width="2" d="M584.061,-719.876C563.51,-710.349 537.749,-698.407 515.911,-688.283"/>
<polygon fill="grey" stroke="grey" points="517.363,-685.099 506.819,-684.068 514.419,-691.45 517.363,-685.099"/>
</g>
<!-- 20&#45;&gt;23 -->
<g id="edge53" class="edge"><title>20&#45;&gt;23</title>
<path fill="none" stroke="grey" stroke-width="2" d="M565.849,-722.321C562.856,-721.534 559.892,-720.756 557,-720 503.86,-706.107 442.931,-690.467 401.202,-679.799"/>
<polygon fill="grey" stroke="grey" points="401.842,-676.35 391.286,-677.266 400.109,-683.133 401.842,-676.35"/>
</g>
<!-- 20&#45;&gt;25 -->
<g id="edge55" class="edge"><title>20&#45;&gt;25</title>
<path fill="none" stroke="grey" stroke-width="2" d="M622.689,-719.871C625.075,-695.67 629.458,-651.211 632.299,-622.393"/>
<polygon fill="grey" stroke="grey" points="635.807,-622.484 633.305,-612.189 628.841,-621.798 635.807,-622.484"/>
</g>
<!-- 20&#45;&gt;32 -->
<g id="edge72" class="edge"><title>20&#45;&gt;32</title>
<path fill="none" stroke="grey" stroke-width="2" d="M610.496,-719.807C596.509,-696.252 571.814,-652.271 557,-612 540.253,-566.474 529.063,-510.936 523.387,-478.416"/>
<polygon fill="grey" stroke="grey" points="526.797,-477.592 521.674,-468.318 519.896,-478.763 526.797,-477.592"/>
</g>
<!-- 21&#45;&gt;6 -->
<g id="edge18" class="edge"><title>21&#45;&gt;6</title>
<path fill="none" stroke="grey" stroke-width="2" d="M185.441,-143.749C186.627,-124.898 190.666,-94.4011 204,-72 210.744,-60.6702 220.784,-50.5709 230.83,-42.3057"/>
<polygon fill="grey" stroke="grey" points="233.084,-44.9864 238.825,-36.0819 228.784,-39.4627 233.084,-44.9864"/>
</g>
<!-- 22&#45;&gt;32 -->
<g id="edge71" class="edge"><title>22&#45;&gt;32</title>
<path fill="none" stroke="grey" stroke-width="2" d="M461.034,-503.697C470.545,-495.05 482.207,-484.449 492.57,-475.027"/>
<polygon fill="grey" stroke="grey" points="495.14,-477.421 500.185,-468.104 490.431,-472.241 495.14,-477.421"/>
</g>
<!-- 23&#45;&gt;5 -->
<g id="edge12" class="edge"><title>23&#45;&gt;5</title>
<path fill="none" stroke="grey" stroke-width="2" d="M343.401,-647.871C332.569,-623.457 312.59,-578.426 299.817,-549.635"/>
<polygon fill="grey" stroke="grey" points="302.881,-547.911 295.626,-540.189 296.482,-550.749 302.881,-547.911"/>
</g>
<!-- 23&#45;&gt;25 -->
<g id="edge56" class="edge"><title>23&#45;&gt;25</title>
<path fill="none" stroke="grey" stroke-width="2" d="M391.088,-655.119C433.982,-644.547 503.099,-627.511 556.824,-614.269"/>
<polygon fill="grey" stroke="grey" points="557.795,-617.634 566.667,-611.843 556.12,-610.838 557.795,-617.634"/>
</g>
<!-- 24&#45;&gt;20 -->
<g id="edge47" class="edge"><title>24&#45;&gt;20</title>
<path fill="none" stroke="grey" stroke-width="2" d="M655.624,-863.754C650.415,-853.588 644.165,-840.338 640,-828 633.147,-807.698 628.223,-783.928 625.107,-766.063"/>
<polygon fill="grey" stroke="grey" points="628.533,-765.332 623.44,-756.042 621.628,-766.481 628.533,-765.332"/>
</g>
<!-- 35 -->
<g id="node36" class="node"><title>35</title>
<path fill="none" stroke="#56d882" stroke-width="2" stroke-dasharray="5,2" d="M756.25,-828C756.25,-828 661.75,-828 661.75,-828 655.75,-828 649.75,-822 649.75,-816 649.75,-816 649.75,-804 649.75,-804 649.75,-798 655.75,-792 661.75,-792 661.75,-792 756.25,-792 756.25,-792 762.25,-792 768.25,-798 768.25,-804 768.25,-804 768.25,-816 768.25,-816 768.25,-822 762.25,-828 756.25,-828"/>
<text text-anchor="middle" x="709" y="-807.5" font-family="sans" font-size="10.00">create_all_position_bed</text>
</g>
<!-- 24&#45;&gt;35 -->
<g id="edge76" class="edge"><title>24&#45;&gt;35</title>
<path fill="none" stroke="grey" stroke-width="2" d="M675.876,-863.697C680.992,-855.559 687.195,-845.689 692.845,-836.701"/>
<polygon fill="grey" stroke="grey" points="695.89,-838.433 698.249,-828.104 689.964,-834.708 695.89,-838.433"/>
</g>
<!-- 25&#45;&gt;5 -->
<g id="edge11" class="edge"><title>25&#45;&gt;5</title>
<path fill="none" stroke="grey" stroke-width="2" d="M566.666,-580.046C514.377,-570.027 440.213,-555.59 365.996,-540.185"/>
<polygon fill="grey" stroke="grey" points="366.505,-536.715 356.002,-538.104 365.078,-543.569 366.505,-536.715"/>
</g>
<!-- 25&#45;&gt;22 -->
<g id="edge50" class="edge"><title>25&#45;&gt;22</title>
<path fill="none" stroke="grey" stroke-width="2" d="M587.787,-575.876C560.934,-566.137 527.12,-553.872 498.82,-543.608"/>
<polygon fill="grey" stroke="grey" points="499.654,-540.188 489.06,-540.068 497.267,-546.768 499.654,-540.188"/>
</g>
<!-- 25&#45;&gt;30 -->
<g id="edge63" class="edge"><title>25&#45;&gt;30</title>
<path fill="none" stroke="grey" stroke-width="2" d="M672.428,-575.876C693.251,-566.349 719.354,-554.407 741.481,-544.283"/>
<polygon fill="grey" stroke="grey" points="743.056,-547.411 750.694,-540.068 740.144,-541.046 743.056,-547.411"/>
</g>
<!-- 25&#45;&gt;31 -->
<g id="edge67" class="edge"><title>25&#45;&gt;31</title>
<path fill="none" stroke="grey" stroke-width="2" d="M634.753,-575.697C634.643,-567.983 634.51,-558.712 634.387,-550.112"/>
<polygon fill="grey" stroke="grey" points="637.887,-550.053 634.244,-540.104 630.888,-550.153 637.887,-550.053"/>
</g>
<!-- 26&#45;&gt;9 -->
<g id="edge27" class="edge"><title>26&#45;&gt;9</title>
<path fill="none" stroke="grey" stroke-width="2" d="M726.959,-292.286C720.577,-290.813 714.146,-289.354 708,-288 639.153,-272.832 559.682,-256.785 507.121,-246.375"/>
<polygon fill="grey" stroke="grey" points="507.793,-242.94 497.304,-244.434 506.435,-249.807 507.793,-242.94"/>
</g>
<!-- 27 -->
<g id="node28" class="node"><title>27</title>
<path fill="none" stroke="#d6d856" stroke-width="2" stroke-dasharray="5,2" d="M1096.25,-1044C1096.25,-1044 1007.75,-1044 1007.75,-1044 1001.75,-1044 995.75,-1038 995.75,-1032 995.75,-1032 995.75,-1020 995.75,-1020 995.75,-1014 1001.75,-1008 1007.75,-1008 1007.75,-1008 1096.25,-1008 1096.25,-1008 1102.25,-1008 1108.25,-1014 1108.25,-1020 1108.25,-1020 1108.25,-1032 1108.25,-1032 1108.25,-1038 1102.25,-1044 1096.25,-1044"/>
<text text-anchor="middle" x="1052" y="-1029" font-family="sans" font-size="10.00">run_snippy</text>
<text text-anchor="middle" x="1052" y="-1018" font-family="sans" font-size="10.00">sample: fourth_isolate</text>
</g>
<!-- 27&#45;&gt;4 -->
<g id="edge9" class="edge"><title>27&#45;&gt;4</title>
<path fill="none" stroke="grey" stroke-width="2" d="M1075.01,-1007.94C1085.76,-998.604 1097.59,-986.078 1104,-972 1160.34,-848.246 1128,-802.975 1128,-667 1128,-667 1128,-667 1128,-449 1128,-427.426 840.114,-354.385 709.319,-322.314"/>
<polygon fill="grey" stroke="grey" points="709.969,-318.87 699.424,-319.893 708.305,-325.67 709.969,-318.87"/>
</g>
<!-- 27&#45;&gt;8 -->
<g id="edge22" class="edge"><title>27&#45;&gt;8</title>
<path fill="none" stroke="grey" stroke-width="2" d="M995.727,-1014.82C918.101,-1000.78 779.77,-975.759 709.143,-962.984"/>
<polygon fill="grey" stroke="grey" points="709.692,-959.527 699.229,-961.191 708.446,-966.415 709.692,-959.527"/>
</g>
<!-- 27&#45;&gt;12 -->
<g id="edge32" class="edge"><title>27&#45;&gt;12</title>
<path fill="none" stroke="grey" stroke-width="2" d="M1062.93,-1007.76C1097.78,-951.079 1204,-764.444 1204,-595 1204,-595 1204,-595 1204,-305 1204,-238.846 750.525,-189.942 546.464,-171.284"/>
<polygon fill="grey" stroke="grey" points="546.621,-167.784 536.346,-170.365 545.988,-174.755 546.621,-167.784"/>
</g>
<!-- 27&#45;&gt;14 -->
<g id="edge36" class="edge"><title>27&#45;&gt;14</title>
<path fill="none" stroke="grey" stroke-width="2" d="M1035.32,-1007.97C987.872,-959.498 851.953,-820.666 796.253,-763.773"/>
<polygon fill="grey" stroke="grey" points="798.44,-761.004 788.943,-756.306 793.438,-765.901 798.44,-761.004"/>
</g>
<!-- 27&#45;&gt;18 -->
<g id="edge44" class="edge"><title>27&#45;&gt;18</title>
<path fill="none" stroke="grey" stroke-width="2" d="M1073.42,-1007.89C1084.66,-998.182 1098.11,-985.331 1108,-972 1160.21,-901.623 1242,-719.333 1242,-667 1242,-667 1242,-667 1242,-233 1242,-150.385 618.279,-105.61 431.336,-94.0452"/>
<polygon fill="grey" stroke="grey" points="431.404,-90.5429 421.208,-93.4249 430.976,-97.5298 431.404,-90.5429"/>
</g>
<!-- 27&#45;&gt;31 -->
<g id="edge66" class="edge"><title>27&#45;&gt;31</title>
<path fill="none" stroke="grey" stroke-width="2" d="M1052,-1007.95C1052,-981.292 1052,-928.115 1052,-883 1052,-883 1052,-883 1052,-665 1052,-629.497 833.02,-570.997 712.052,-541.39"/>
<polygon fill="grey" stroke="grey" points="712.634,-537.929 702.089,-538.962 710.976,-544.73 712.634,-537.929"/>
</g>
<!-- 28 -->
<g id="node29" class="node"><title>28</title>
<path fill="none" stroke="#d6d856" stroke-width="2" stroke-dasharray="5,2" d="M1233.25,-1044C1233.25,-1044 1138.75,-1044 1138.75,-1044 1132.75,-1044 1126.75,-1038 1126.75,-1032 1126.75,-1032 1126.75,-1020 1126.75,-1020 1126.75,-1014 1132.75,-1008 1138.75,-1008 1138.75,-1008 1233.25,-1008 1233.25,-1008 1239.25,-1008 1245.25,-1014 1245.25,-1020 1245.25,-1020 1245.25,-1032 1245.25,-1032 1245.25,-1038 1239.25,-1044 1233.25,-1044"/>
<text text-anchor="middle" x="1186" y="-1029" font-family="sans" font-size="10.00">run_snippy</text>
<text text-anchor="middle" x="1186" y="-1018" font-family="sans" font-size="10.00">sample: second_isolate</text>
</g>
<!-- 28&#45;&gt;8 -->
<g id="edge23" class="edge"><title>28&#45;&gt;8</title>
<path fill="none" stroke="grey" stroke-width="2" d="M1126.63,-1009.87C1123.38,-1009.2 1120.16,-1008.57 1117,-1008 968.934,-981.187 791.014,-964.936 709.606,-958.371"/>
<polygon fill="grey" stroke="grey" points="709.482,-954.851 699.236,-957.546 708.927,-961.828 709.482,-954.851"/>
</g>
<!-- 28&#45;&gt;13 -->
<g id="edge34" class="edge"><title>28&#45;&gt;13</title>
<path fill="none" stroke="grey" stroke-width="2" d="M1158.77,-1007.93C1144.58,-998.331 1127.43,-985.566 1114,-972 1047.83,-905.171 987.979,-810.36 961.048,-765.06"/>
<polygon fill="grey" stroke="grey" points="963.903,-763.011 955.81,-756.173 957.872,-766.565 963.903,-763.011"/>
</g>
<!-- 28&#45;&gt;18 -->
<g id="edge45" class="edge"><title>28&#45;&gt;18</title>
<path fill="none" stroke="grey" stroke-width="2" d="M1207.33,-1007.73C1235.06,-983.179 1280,-935.33 1280,-883 1280,-883 1280,-883 1280,-233 1280,-186.828 1540.81,-249.442 1063,-144 831.788,-92.9761 547.205,-89.2366 431.565,-90.1132"/>
<polygon fill="grey" stroke="grey" points="431.203,-86.6163 421.235,-90.2075 431.267,-93.616 431.203,-86.6163"/>
</g>
<!-- 28&#45;&gt;26 -->
<g id="edge60" class="edge"><title>28&#45;&gt;26</title>
<path fill="none" stroke="grey" stroke-width="2" d="M1184.63,-1007.81C1180.11,-949.762 1166,-755.677 1166,-595 1166,-595 1166,-595 1166,-449 1166,-381.055 952.683,-335.656 843.206,-316.83"/>
<polygon fill="grey" stroke="grey" points="843.711,-313.366 833.266,-315.145 842.541,-320.267 843.711,-313.366"/>
</g>
<!-- 28&#45;&gt;30 -->
<g id="edge64" class="edge"><title>28&#45;&gt;30</title>
<path fill="none" stroke="grey" stroke-width="2" d="M1172.25,-1007.86C1145.7,-973.007 1090,-890.404 1090,-811 1090,-811 1090,-811 1090,-665 1090,-624.031 1096.03,-603.863 1066,-576 1037.55,-549.605 938.342,-535.604 866.544,-528.751"/>
<polygon fill="grey" stroke="grey" points="866.441,-525.227 856.161,-527.791 865.797,-532.197 866.441,-525.227"/>
</g>
<!-- 29 -->
<g id="node30" class="node"><title>29</title>
<path fill="none" stroke="#59d856" stroke-width="2" stroke-dasharray="5,2" d="M690.25,-396C690.25,-396 601.75,-396 601.75,-396 595.75,-396 589.75,-390 589.75,-384 589.75,-384 589.75,-372 589.75,-372 589.75,-366 595.75,-360 601.75,-360 601.75,-360 690.25,-360 690.25,-360 696.25,-360 702.25,-366 702.25,-372 702.25,-372 702.25,-384 702.25,-384 702.25,-390 696.25,-396 690.25,-396"/>
<text text-anchor="middle" x="646" y="-381" font-family="sans" font-size="10.00">split_final_vcf</text>
<text text-anchor="middle" x="646" y="-370" font-family="sans" font-size="10.00">sample: fourth_isolate</text>
</g>
<!-- 29&#45;&gt;4 -->
<g id="edge10" class="edge"><title>29&#45;&gt;4</title>
<path fill="none" stroke="grey" stroke-width="2" d="M646,-359.697C646,-351.983 646,-342.712 646,-334.112"/>
<polygon fill="grey" stroke="grey" points="649.5,-334.104 646,-324.104 642.5,-334.104 649.5,-334.104"/>
</g>
<!-- 30&#45;&gt;32 -->
<g id="edge69" class="edge"><title>30&#45;&gt;32</title>
<path fill="none" stroke="grey" stroke-width="2" d="M722.539,-503.966C673.052,-491.088 606.456,-473.758 563.134,-462.485"/>
<polygon fill="grey" stroke="grey" points="564.012,-459.097 553.453,-459.965 562.249,-465.871 564.012,-459.097"/>
</g>
<!-- 31&#45;&gt;32 -->
<g id="edge70" class="edge"><title>31&#45;&gt;32</title>
<path fill="none" stroke="grey" stroke-width="2" d="M605.868,-503.876C590.832,-494.724 572.133,-483.342 555.94,-473.485"/>
<polygon fill="grey" stroke="grey" points="557.602,-470.4 547.24,-468.19 553.962,-476.379 557.602,-470.4"/>
</g>
<!-- 32&#45;&gt;6 -->
<g id="edge14" class="edge"><title>32&#45;&gt;6</title>
<path fill="none" stroke="grey" stroke-width="2" d="M484.509,-445.326C441.387,-439.633 366.28,-426.031 309,-396 179.842,-328.285 122.279,-312.791 62,-180 25.9017,-100.478 161.018,-49.1669 229.073,-28.8684"/>
<polygon fill="grey" stroke="grey" points="230.365,-32.138 238.992,-25.9879 228.412,-25.4158 230.365,-32.138"/>
</g>
<!-- 32&#45;&gt;7 -->
<g id="edge19" class="edge"><title>32&#45;&gt;7</title>
<path fill="none" stroke="grey" stroke-width="2" d="M553.39,-439.777C593.23,-429.092 659.886,-411.214 710.622,-397.607"/>
<polygon fill="grey" stroke="grey" points="711.792,-400.917 720.544,-394.946 709.978,-394.156 711.792,-400.917"/>
</g>
<!-- 32&#45;&gt;17 -->
<g id="edge39" class="edge"><title>32&#45;&gt;17</title>
<path fill="none" stroke="grey" stroke-width="2" d="M519,-431.697C519,-423.983 519,-414.712 519,-406.112"/>
<polygon fill="grey" stroke="grey" points="522.5,-406.104 519,-396.104 515.5,-406.104 522.5,-406.104"/>
</g>
<!-- 32&#45;&gt;18 -->
<g id="edge40" class="edge"><title>32&#45;&gt;18</title>
<path fill="none" stroke="grey" stroke-width="2" d="M484.624,-449.311C442.446,-447.73 371.667,-438.369 332,-396 304.357,-366.474 313,-347.447 313,-307 313,-307 313,-307 313,-233 313,-188.845 339.568,-143.558 358.991,-116.35"/>
<polygon fill="grey" stroke="grey" points="361.897,-118.306 365.003,-108.176 356.258,-114.158 361.897,-118.306"/>
</g>
<!-- 32&#45;&gt;19 -->
<g id="edge46" class="edge"><title>32&#45;&gt;19</title>
<path fill="none" stroke="grey" stroke-width="2" d="M488.666,-431.876C472.303,-422.639 451.917,-411.131 434.346,-401.212"/>
<polygon fill="grey" stroke="grey" points="435.879,-398.058 425.45,-396.19 432.438,-404.154 435.879,-398.058"/>
</g>
<!-- 32&#45;&gt;29 -->
<g id="edge62" class="edge"><title>32&#45;&gt;29</title>
<path fill="none" stroke="grey" stroke-width="2" d="M550.068,-431.876C566.827,-422.639 587.706,-411.131 605.702,-401.212"/>
<polygon fill="grey" stroke="grey" points="607.745,-404.082 614.813,-396.19 604.366,-397.952 607.745,-404.082"/>
</g>
<!-- 33&#45;&gt;9 -->
<g id="edge25" class="edge"><title>33&#45;&gt;9</title>
<path fill="none" stroke="grey" stroke-width="2" d="M500.944,-287.697C492.505,-279.135 482.175,-268.656 472.957,-259.304"/>
<polygon fill="grey" stroke="grey" points="475.373,-256.769 465.86,-252.104 470.387,-261.683 475.373,-256.769"/>
</g>
<!-- 34 -->
<g id="node35" class="node"><title>34</title>
<path fill="none" stroke="#d6d856" stroke-width="2" stroke-dasharray="5,2" d="M306,-1044C306,-1044 226,-1044 226,-1044 220,-1044 214,-1038 214,-1032 214,-1032 214,-1020 214,-1020 214,-1014 220,-1008 226,-1008 226,-1008 306,-1008 306,-1008 312,-1008 318,-1014 318,-1020 318,-1020 318,-1032 318,-1032 318,-1038 312,-1044 306,-1044"/>
<text text-anchor="middle" x="266" y="-1029" font-family="sans" font-size="10.00">run_snippy</text>
<text text-anchor="middle" x="266" y="-1018" font-family="sans" font-size="10.00">sample: first_isolate</text>
</g>
<!-- 34&#45;&gt;0 -->
<g id="edge1" class="edge"><title>34&#45;&gt;0</title>
<path fill="none" stroke="grey" stroke-width="2" d="M278.15,-1007.97C312.58,-959.696 410.94,-821.8 451.829,-764.475"/>
<polygon fill="grey" stroke="grey" points="454.698,-766.48 457.656,-756.306 448.999,-762.415 454.698,-766.48"/>
</g>
<!-- 34&#45;&gt;8 -->
<g id="edge20" class="edge"><title>34&#45;&gt;8</title>
<path fill="none" stroke="grey" stroke-width="2" d="M318.162,-1015.85C397.449,-1001.94 546.888,-975.721 621.011,-962.717"/>
<polygon fill="grey" stroke="grey" points="621.71,-966.148 630.955,-960.973 620.5,-959.254 621.71,-966.148"/>
</g>
<!-- 34&#45;&gt;18 -->
<g id="edge42" class="edge"><title>34&#45;&gt;18</title>
<path fill="none" stroke="grey" stroke-width="2" d="M223.115,-1007.92C157.069,-978.466 38,-911.432 38,-811 38,-811 38,-811 38,-449 38,-309.299 11.4984,-238.919 114,-144 184.444,-78.7667 233.782,-130.98 327,-108 327.101,-107.975 327.202,-107.95 327.303,-107.925"/>
<polygon fill="grey" stroke="grey" points="328.118,-111.33 336.866,-105.355 326.301,-104.57 328.118,-111.33"/>
</g>
<!-- 34&#45;&gt;22 -->
<g id="edge49" class="edge"><title>34&#45;&gt;22</title>
<path fill="none" stroke="grey" stroke-width="2" d="M261.36,-1007.78C244.86,-946.495 190,-742.492 190,-739 190,-739 190,-739 190,-665 190,-621.145 307.3,-571.033 381.842,-543.616"/>
<polygon fill="grey" stroke="grey" points="383.409,-546.77 391.61,-540.063 381.016,-540.192 383.409,-546.77"/>
</g>
<!-- 34&#45;&gt;33 -->
<g id="edge74" class="edge"><title>34&#45;&gt;33</title>
<path fill="none" stroke="grey" stroke-width="2" d="M255.069,-1007.76C220.216,-951.079 114,-764.444 114,-595 114,-595 114,-595 114,-449 114,-344.348 233.083,-394.169 332,-360 343.939,-355.876 406.101,-338.29 455.322,-324.492"/>
<polygon fill="grey" stroke="grey" points="456.29,-327.855 464.975,-321.788 454.402,-321.115 456.29,-327.855"/>
</g>
<!-- 35&#45;&gt;0 -->
<g id="edge2" class="edge"><title>35&#45;&gt;0</title>
<path fill="none" stroke="grey" stroke-width="2" d="M650.84,-791.966C616.865,-782.015 573.815,-769.406 538.243,-758.987"/>
<polygon fill="grey" stroke="grey" points="539.002,-755.563 528.421,-756.111 537.034,-762.281 539.002,-755.563"/>
</g>
<!-- 35&#45;&gt;1 -->
<g id="edge4" class="edge"><title>35&#45;&gt;1</title>
<path fill="none" stroke="grey" stroke-width="2" d="M649.714,-799.942C586.417,-790.14 482.928,-773.74 384.089,-756.168"/>
<polygon fill="grey" stroke="grey" points="384.692,-752.72 374.233,-754.409 383.462,-759.611 384.692,-752.72"/>
</g>
<!-- 35&#45;&gt;13 -->
<g id="edge33" class="edge"><title>35&#45;&gt;13</title>
<path fill="none" stroke="grey" stroke-width="2" d="M766.674,-791.966C800.364,-782.015 843.053,-769.406 878.329,-758.987"/>
<polygon fill="grey" stroke="grey" points="879.469,-762.3 888.068,-756.111 877.486,-755.587 879.469,-762.3"/>
</g>
<!-- 35&#45;&gt;14 -->
<g id="edge35" class="edge"><title>35&#45;&gt;14</title>
<path fill="none" stroke="grey" stroke-width="2" d="M724.573,-791.697C732.202,-783.22 741.523,-772.864 749.876,-763.583"/>
<polygon fill="grey" stroke="grey" points="752.518,-765.879 756.606,-756.104 747.315,-761.196 752.518,-765.879"/>
</g>
</g>
</svg>
